<svg aria-label="logo" viewBox="0 0 75 33" xmlns="http://www.w3.org/2000/svg" class="css-en-6cp3n5"><g clip-path="url(#clip0)"><path fill-rule="evenodd" clip-rule="evenodd" d="M9.95204 29.2513V29.5781C6.62756 30.1728 2.59737 31.8411 1.37766 32.9998H0.107011C1.65047 30.9163 5.85492 29.0602 9.95204 29.2513ZM9.95204 31.072V31.5781C9.54516 31.687 9.11492 31.8114 8.69166 31.9426L8.48074 32.0087C7.39548 32.3528 6.39044 32.7326 5.98845 32.9998H3.40615C5.21794 31.9794 7.5957 31.1238 9.95204 31.072ZM10.0543 27.6039C5.31301 28.3699 1.96156 29.6075 0 31.3166V30.1684C1.02523 29.1432 5.35453 26.731 10.0543 27.6039ZM9.34347 25.7754C5.21049 26.2518 2.096 27.1611 0 28.5034V27.3944C3.11449 25.6321 6.22898 25.0924 9.34347 25.7754ZM8.73345 23.9862C5.30669 24.2062 2.39554 24.8694 0 25.9758V24.8524C3.58176 23.4982 6.49291 23.2094 8.73345 23.9862ZM0.148447 -0.000244141L9.95204 20.3485V24.3112L0 0.53525V-0.000244141H0.148447ZM7.90127 22.1408C4.64379 22.3263 2.01003 22.7996 0 23.5608V22.4702C3.2315 21.4783 5.86525 21.3685 7.90127 22.1408ZM7.21894 20.3946C4.25856 20.3946 1.85225 20.7295 0 21.3994V20.2783C2.90749 19.6213 5.3138 19.6601 7.21894 20.3946ZM6.4876 18.5972C4.32507 18.4381 2.16253 18.6098 0 19.1123V18.086C2.75766 17.7001 4.9202 17.8706 6.4876 18.5972ZM5.80933 16.8026C3.63387 16.5866 1.69743 16.6524 0 16.9998V16.0572C2.37736 15.7972 4.3138 16.0457 5.80933 16.8026ZM9.95204 14.7814V15.4073C9.68167 15.5829 9.46848 15.7669 9.31245 15.9593C9.31245 15.6553 9.59294 15.1086 9.95204 14.7814ZM5.06278 15.0022C3.01287 14.7985 1.32527 14.7985 0 15.0022V14.0322C2.18681 13.9979 3.87441 14.3213 5.06278 15.0022ZM9.95204 11.8877V12.8298C9.30914 13.2296 8.77408 13.6797 8.34687 14.1804C8.58218 13.3325 9.39958 12.2386 9.95204 11.8877ZM0 12.1019C1.82187 12.1996 3.28156 12.601 4.37907 13.3062C2.6697 12.9746 1.21001 12.8775 0 13.0147V12.1019ZM9.95204 8.99605V10.1741C9.00441 10.8022 8.14832 11.529 7.38377 12.3544C7.6286 10.9772 9.31691 9.47674 9.95204 8.99605ZM0 10.2812C1.45233 10.4685 2.66077 10.8756 3.62532 11.5026C2.28423 11.1957 1.07579 11.0713 0 11.1295V10.2812ZM9.95204 6.31858V7.49667C8.47899 8.51936 7.30186 9.53561 6.42067 10.5454C6.91249 8.38536 9.43529 6.58304 9.95204 6.31858ZM0 8.56766C1.22225 8.76198 2.19278 9.16546 2.91159 9.77812C1.85404 9.48804 0.883513 9.33399 0 9.31598V8.56766ZM9.95204 3.64111V4.8192C8.19939 5.97098 6.7369 7.27085 5.56458 8.71879C5.80152 6.46898 8.92203 4.10766 9.95204 3.64111ZM0 6.85408C1.00997 7.19223 1.73636 7.59278 2.17916 8.05574C1.35382 7.77795 0.627428 7.62257 0 7.58961V6.85408ZM9.95204 0.963645V2.14173C7.81399 3.43671 6.02372 5.05138 4.58123 6.98573C4.91034 4.03557 8.88023 1.48821 9.95204 0.963645ZM0 5.2476C0.695703 5.52684 1.18944 5.84789 1.48121 6.21075C0.930126 6.00009 0.436388 5.87845 0 5.8458V5.2476ZM8.97402 -0.000244141C6.76648 1.50425 4.99519 3.21318 3.66014 5.12656C3.84532 3.41763 5.01022 1.70869 7.15483 -0.000244141H8.97402ZM0 3.64111C0.378754 3.84161 0.642198 4.05672 0.790331 4.28644C0.543852 4.16552 0.280408 4.08197 0 4.03581V3.64111ZM5.54966 -0.000244141C4.44352 0.943006 3.48539 2.07314 2.67528 3.39015C2.70815 2.36252 3.16689 1.23239 4.05151 -0.000244141H5.54966ZM2.78229 -0.000244141C2.42559 0.452555 2.06888 0.988049 1.71218 1.60624C1.74684 0.940479 1.85385 0.404985 2.03321 -0.000244141H2.78229Z" fill="#B99855"></path><path fill-rule="evenodd" clip-rule="evenodd" d="M22.7411 0.632432V6.22107H21.9882V0.632432H19.8369V-0.000244141H25V0.632432H22.7411Z" fill="white"></path><path fill-rule="evenodd" clip-rule="evenodd" d="M34.5732 2.74135V-0.000244141H35.3261V6.22107H34.5732V3.37403H30.916V6.22107H30.1631V-0.000244141H30.916V2.74135H34.5732Z" fill="white"></path><path fill-rule="evenodd" clip-rule="evenodd" d="M20.1086 13.5244H24.7282V14.1571H20.8607V16.3715H24.2985V17.0041H20.8607V19.7457H20.1086V13.5244Z" fill="white"></path><path fill-rule="evenodd" clip-rule="evenodd" d="M31.25 26.7781H35.8696V27.4108H32.002V29.6251H35.4398V30.2578H32.002V32.9994H31.25V26.7781Z" fill="white"></path><path fill-rule="evenodd" clip-rule="evenodd" d="M41.8478 26.7781H46.4673V27.4108H42.5998V29.6251H46.0376V30.2578H42.5998V32.9994H41.8478V26.7781Z" fill="white"></path><path fill-rule="evenodd" clip-rule="evenodd" d="M34.3165 17.4259L32.833 14.2287L31.4045 17.4259H34.3165ZM34.6101 18.0586H31.1218L30.368 19.7457H29.6196L32.3993 13.5244H33.2546L36.1413 19.7457H35.3929L34.6101 18.0586Z" fill="white"></path><path fill-rule="evenodd" clip-rule="evenodd" d="M41.8478 -0.000244141H46.3624V0.632432H42.5827V2.74135H45.9424V3.37403H42.5827V5.58839H46.4673V6.22107H41.8478V-0.000244141Z" fill="white"></path><path fill-rule="evenodd" clip-rule="evenodd" d="M69.5652 26.7781H74.0798V27.4108H70.3002V29.5197H73.6599V30.1523H70.3002V32.3667H74.1848V32.9994H69.5652V26.7781Z" fill="white"></path><path fill-rule="evenodd" clip-rule="evenodd" d="M60.5249 19.1131H64.1304V19.7457H59.7826V13.5244H60.5249V19.1131Z" fill="white"></path><path fill-rule="evenodd" clip-rule="evenodd" d="M22.2826 32.9994C20.4817 32.9994 19.0217 31.5461 19.0217 29.7535C19.0217 27.9608 20.4817 26.5076 22.2826 26.5076C24.0835 26.5076 25.5435 27.9608 25.5435 29.7535C25.5435 31.5461 24.0835 32.9994 22.2826 32.9994ZM22.2826 32.3608C23.6633 32.3608 24.7826 31.2173 24.7826 29.8067C24.7826 28.3961 23.6633 27.2525 22.2826 27.2525C20.9019 27.2525 19.7826 28.3961 19.7826 29.8067C19.7826 31.2173 20.9019 32.3608 22.2826 32.3608Z" fill="white"></path><path fill-rule="evenodd" clip-rule="evenodd" d="M64.6334 27.5236L64.058 28.0914C63.507 27.5761 62.7442 27.2525 61.9999 27.2525C60.6008 27.2525 59.4666 28.3961 59.4666 29.8067C59.4666 31.2173 60.6008 32.3608 61.9999 32.3608C62.7819 32.3608 63.5843 32.0036 64.14 31.4422L64.6739 31.9475C63.9539 32.5941 62.9637 32.9994 61.9999 32.9994C60.175 32.9994 58.6956 31.5461 58.6956 29.7535C58.6956 27.9608 60.175 26.5076 61.9999 26.5076C62.9457 26.5076 63.9171 26.8979 64.6334 27.5236Z" fill="white"></path><path fill-rule="evenodd" clip-rule="evenodd" d="M52.7174 13.5244H53.5326V19.7457H52.7174V13.5244Z" fill="white"></path><path fill-rule="evenodd" clip-rule="evenodd" d="M52.7174 26.7781H53.5326V32.9994H52.7174V26.7781Z" fill="white"></path><path fill-rule="evenodd" clip-rule="evenodd" d="M72.3779 17.3205V19.7457H71.6438V17.3205L69.0217 13.5244H69.9657L72.0109 16.5665L74.0561 13.5244H75L72.3779 17.3205Z" fill="white"></path><path fill-rule="evenodd" clip-rule="evenodd" d="M46.2767 13.5385V13.5244H47.0109V19.7457H46.2767V14.7955L44.0742 18.0677L41.7668 14.7011V19.7457H41.0326V13.5244H41.7668V13.5365L41.8621 13.5244L44.0376 16.8429L46.2767 13.5385Z" fill="white"></path></g><defs><clipPath id="clip0"><rect width="75" height="33" fill="white" transform="translate(0 -0.000244141)"></rect></clipPath></defs></svg>